# xmcd
#
# Track frame offsets:
#	150
#	17962
#	34678
#	49866
#	63740
#	79964
#	96538
#	113288
#	128314
#	141778
#	157088
#	173315
#	187795
#
# Disc length: 2720 seconds
#
# Revision: 2
# Processed by: cddbd v1.5.2PL0 Copyright (c) Steve Scherf et al.
# Submitted via: EasyCDDAExtractor 15.3.0.1
#
DISCID=a10a9e0d
DTITLE=RBD - Para Olvidarte De Mi
DYEAR=2009
DGENRE=Latin
TTITLE0=Camino Al Sol
TTITLE1=Mirame
TTITLE2=Para Olvidarte De Mi
TTITLE3=Quien Te Crees
TTITLE4=Este Donde Este
TTITLE5=Mas Tuya Que Mia
TTITLE6=Hace Un Instante
TTITLE7=Desaparecio
TTITLE8=Olvidar
TTITLE9=Yo Vivo Por Ti
TTITLE10=Lagrimas Perdidas
TTITLE11=Puedes Ver Pero No Tocar
TTITLE12=Adios
EXTD=
EXTT0=
EXTT1=
EXTT2=
EXTT3=
EXTT4=
EXTT5=
EXTT6=
EXTT7=
EXTT8=
EXTT9=
EXTT10=
EXTT11=
EXTT12=
PLAYORDER=
